HIERARCHY
ROOT Hips
{
	OFFSET 0.000000 0.000000 0.000000
	CHANNELS 6 Xposition Yposition Zposition Xrotation Yrotation Zrotation
	JOINT LeftUpLeg_virtual
	{
		OFFSET 0.000000 0.000000 0.000000
		CHANNELS 3 Xrotation Yrotation Zrotation
		JOINT LeftUpLeg
		{
			OFFSET 10.205400 -3.823500 0.155100
			CHANNELS 3 Xrotation Yrotation Zrotation
			JOINT LeftLeg
			{
				OFFSET 0.708757 -12.982077 0.567790
				CHANNELS 3 Xrotation Yrotation Zrotation
				JOINT LeftFoot
				{
					OFFSET -0.708756 -10.717838 -2.184338
					CHANNELS 3 Xrotation Yrotation Zrotation
					JOINT LeftToeBase
					{
						OFFSET 0.108149 -7.191104 7.560241
						CHANNELS 3 Xrotation Yrotation Zrotation
						JOINT LeftToe_End
						{
							OFFSET 0.070230 0.081724 4.490308
							CHANNELS 3 Xrotation Yrotation Zrotation
							End Site
							{
								OFFSET 0 0 0
							}
						}
					}
				}
			}
		}
	}
	JOINT RightUpLeg_virtual
	{
		OFFSET 0.000000 0.000000 0.000000
		CHANNELS 3 Xrotation Yrotation Zrotation
		JOINT RightUpLeg
		{
			OFFSET -10.205400 -3.823500 0.005500
			CHANNELS 3 Xrotation Yrotation Zrotation
			JOINT RightLeg
			{
				OFFSET -0.708756 -12.982134 0.610632
				CHANNELS 3 Xrotation Yrotation Zrotation
				JOINT RightFoot
				{
					OFFSET 0.708754 -10.717769 -1.945823
					CHANNELS 3 Xrotation Yrotation Zrotation
					JOINT RightToeBase
					{
						OFFSET -0.108140 -7.191069 7.372968
						CHANNELS 3 Xrotation Yrotation Zrotation
						JOINT RightToe_End
						{
							OFFSET -0.070227 0.081735 4.479403
							CHANNELS 3 Xrotation Yrotation Zrotation
							End Site
							{
								OFFSET 0 0 0
							}
						}
					}
				}
			}
		}
	}
	JOINT Spine_virtual
	{
		OFFSET 0.000000 0.000000 0.000000
		CHANNELS 3 Xrotation Yrotation Zrotation
		JOINT Spine
		{
			OFFSET 0.000000 6.876099 0.125700
			CHANNELS 3 Xrotation Yrotation Zrotation
			JOINT Spine1
			{
				OFFSET 0.000000 5.730043 0.104720
				CHANNELS 3 Xrotation Yrotation Zrotation
				JOINT Spine1_split
				{
					OFFSET 0.000000 5.730043 0.104720
					CHANNELS 3 Xrotation Yrotation Zrotation
					JOINT Spine2
					{
						OFFSET 0.000000 5.730043 0.104720
						CHANNELS 3 Xrotation Yrotation Zrotation
						JOINT Neck_virtual
						{
							OFFSET 0.000000 0.000000 0.000000
							CHANNELS 3 Xrotation Yrotation Zrotation
							JOINT Neck
							{
								OFFSET 0.000000 10.314075 0.188496
								CHANNELS 3 Xrotation Yrotation Zrotation
								JOINT Head
								{
									OFFSET 0.000000 7.643700 -2.377400
									CHANNELS 3 Xrotation Yrotation Zrotation
									JOINT HeadTop_End
									{
										OFFSET 0.000000 43.788605 -13.619600
										CHANNELS 3 Xrotation Yrotation Zrotation
										End Site
										{
											OFFSET 0 0 0
										}
									}
								}
							}
						}
						JOINT LeftShoulder_virtual
						{
							OFFSET 0.000000 0.000000 0.000000
							CHANNELS 3 Xrotation Yrotation Zrotation
							JOINT LeftShoulder
							{
								OFFSET 2.196100 4.412489 0.087492
								CHANNELS 3 Xrotation Yrotation Zrotation
								JOINT LeftShoulder_split
								{
									OFFSET 2.196100 4.412489 0.087492
									CHANNELS 3 Xrotation Yrotation Zrotation
									JOINT LeftArm
									{
										OFFSET 8.771219 -2.981674 -0.026999
										CHANNELS 3 Xrotation Yrotation Zrotation
										JOINT LeftForeArm
										{
											OFFSET 8.512804 0.000000 -0.000000
											CHANNELS 3 Xrotation Yrotation Zrotation
											JOINT LeftHand
											{
												OFFSET 18.484802 0.000000 -0.000000
												CHANNELS 3 Xrotation Yrotation Zrotation
												End Site
												{
													OFFSET 0 0 0
												}
											}
										}
									}
								}
							}
						}
						JOINT RightShoulder_virtual
						{
							OFFSET 0.000000 0.000000 0.000000
							CHANNELS 3 Xrotation Yrotation Zrotation
							JOINT RightShoulder
							{
								OFFSET -2.196100 4.412496 0.070690
								CHANNELS 3 Xrotation Yrotation Zrotation
								JOINT RightShoulder_split
								{
									OFFSET -2.196100 4.412496 0.070690
									CHANNELS 3 Xrotation Yrotation Zrotation
									JOINT RightArm
									{
										OFFSET -8.771282 -2.981682 -0.094208
										CHANNELS 3 Xrotation Yrotation Zrotation
										JOINT RightForeArm
										{
											OFFSET -8.494598 0.000000 0.000000
											CHANNELS 3 Xrotation Yrotation Zrotation
											JOINT RightHand
											{
												OFFSET -18.483803 0.000000 0.000001
												CHANNELS 3 Xrotation Yrotation Zrotation
												End Site
												{
													OFFSET 0 0 0
												}
											}
										}
									}
								}
							}
						}
					}
				}
			}
		}
	}
}
MOTION
Frames: 4
Frame Time: 0.03333333
5.251399 21.343592 -19.877232 0.000000 0.000000 0.000000 39.327010 -25.480606 10.614994 -41.656941 -10.018609 -5.318444 102.394501 -1.453936 -3.393524 8.468839 1.013464 -11.296429 -4.935032 -13.188696 -33.924617 0.000000 0.000000 0.000000 41.698134 -24.360607 10.377518 -80.241172 -22.494151 -14.934347 100.649237 -17.412956 4.080978 -42.761776 -8.197410 5.833529 -8.943498 -0.897390 -0.428322 0.000000 0.000000 0.000000 37.532173 -25.359369 11.339151 40.400050 8.601715 3.370704 4.787149 1.996396 0.699432 0.113260 -0.214907 1.890887 0.000000 0.000000 0.000000 6.640755 2.344646 1.142177 -8.850154 -4.406579 0.933077 -21.857427 -17.131552 -6.273036 0.000000 0.000000 0.000000 5.330124 2.288090 0.618416 4.255318 -22.941460 -8.603388 5.529186 0.621538 -3.848634 -24.702532 -19.879955 -37.852215 1.555553 -36.474679 0.340649 0.000000 0.000000 0.000000 4.980108 2.098895 1.353743 1.042772 28.929977 12.492867 -0.379658 2.191330 -0.706169 -52.122574 47.282032 19.457286 -1.606567 16.264535 1.114995 0.000000 0.000000 0.000000 
5.351419 21.591621 -19.777462 0.000000 0.000000 0.000000 38.496404 -27.410242 11.321564 -43.887661 -5.521664 -2.463796 102.917427 -3.578927 -6.378298 1.832779 0.745877 -8.213216 -20.345885 -12.891139 -19.660332 0.000000 0.000000 0.000000 40.337345 -24.804030 10.597001 -79.125098 -21.881285 -15.952037 100.147355 -16.887159 5.680148 -45.086536 -8.310482 5.311732 -8.378590 -0.776235 -0.367636 0.000000 0.000000 0.000000 36.334503 -26.897883 11.596275 39.949011 8.355760 2.733401 4.909100 2.070071 0.564293 0.017487 -0.025008 1.866258 0.000000 0.000000 0.000000 6.814067 2.355871 0.963234 -7.897947 -3.745461 0.322012 -21.466270 -15.548432 -6.801688 0.000000 0.000000 0.000000 5.537336 2.332820 0.366571 4.621126 -23.741649 -9.014419 4.820605 0.171737 -3.754481 -22.212759 -17.194516 -36.923514 1.690202 -38.333901 0.279690 0.000000 0.000000 0.000000 5.154410 2.130162 1.139695 1.349956 28.342789 12.070857 -0.290974 2.261319 -0.994758 -49.651118 45.203660 19.479471 -1.636798 19.628430 1.149876 0.000000 0.000000 0.000000 
5.400683 21.803402 -19.527702 0.000000 0.000000 0.000000 37.648918 -28.624645 11.999845 -48.857999 -2.798553 -0.462677 104.187187 -6.781464 -7.463720 -0.796208 -2.039236 -9.492669 -41.043225 -16.356927 -4.486559 0.000000 0.000000 0.000000 39.190591 -25.745606 11.289385 -77.863651 -21.121148 -16.470216 99.858561 -16.543423 7.261018 -47.296246 -8.828608 4.350115 -8.380509 -0.498741 -0.514692 0.000000 0.000000 0.000000 35.501937 -27.901926 11.816425 39.160753 8.073780 1.716561 5.049072 2.156369 0.422732 -0.006374 -0.321937 1.786766 0.000000 0.000000 0.000000 6.850146 2.387310 0.792227 -7.137099 -3.092318 -0.315544 -21.028863 -13.748003 -7.160410 0.000000 0.000000 0.000000 5.735135 2.386666 0.141836 5.058065 -24.483476 -9.044134 4.192375 -0.379752 -3.598991 -20.167262 -14.602530 -35.911724 1.672637 -39.891566 0.152420 0.000000 0.000000 0.000000 5.355735 2.173550 0.928567 1.806953 27.448748 11.366038 -0.168553 2.037553 -1.230313 -47.720869 43.446806 19.693128 -1.662294 23.511500 1.294949 0.000000 0.000000 0.000000 
5.378806 22.012354 -19.150452 0.000000 0.000000 0.000000 36.740414 -28.951014 12.554740 -55.509070 -1.998730 0.564479 105.259540 -9.393000 -6.766865 -0.137302 -5.450184 -12.737115 -62.855854 -21.828538 5.160070 0.000000 0.000000 0.000000 38.481535 -27.166995 12.309337 -76.284306 -20.221779 -16.557967 99.032805 -15.778610 8.351026 -48.713459 -9.685902 3.940184 -9.253381 -0.108799 -0.855934 0.000000 0.000000 0.000000 34.952417 -28.225063 11.874672 38.168791 7.762262 0.439345 5.234243 2.225870 0.293181 0.058605 -0.654150 1.770860 0.000000 0.000000 0.000000 6.787958 2.424481 0.651304 -6.625140 -2.527205 -0.928631 -20.628112 -11.929948 -7.358972 0.000000 0.000000 0.000000 5.939962 2.451213 -0.046708 5.554053 -25.170046 -8.650086 3.737424 -0.944627 -3.467847 -18.732390 -12.291828 -34.782916 1.523887 -41.262334 0.032102 0.000000 0.000000 0.000000 5.587864 2.237729 0.735122 2.348269 26.281156 10.463223 0.033034 1.648826 -1.346193 -46.520446 42.420188 20.063728 -1.734742 27.151766 1.542560 0.000000 0.000000 0.000000 
